<svg width="34" height="41" viewBox="0 0 34 41" fill="none" xmlns="http://www.w3.org/2000/svg">
  <path d="M11.3747 13.2033H5.74987C4.75534 13.2033 3.80155 13.5984 3.09831 14.3016C2.39507 15.0049 2 15.9586 2 16.9532V24.4529C2 25.4474 2.39507 26.4012 3.09831 27.1045C3.80155 27.8077 4.75534 28.2028 5.74987 28.2028H11.3747V13.2033Z" stroke="#333" stroke-width="2.85714" stroke-linecap="round" stroke-linejoin="round"/>
  <path d="M11.3746 28.2028L26.0366 38.7399C26.5798 39.1158 27.2127 39.3415 27.8712 39.3941C28.5297 39.4468 29.1904 39.3246 29.7865 39.0399C30.4329 38.7495 30.9839 38.2819 31.3754 37.6912C31.767 37.1005 31.9832 36.411 31.9989 35.7025V5.70357C32.0149 5.03017 31.8493 4.36488 31.5194 3.77761C31.1894 3.19035 30.7074 2.7028 30.124 2.36619C29.5279 2.08147 28.8672 1.95926 28.2087 2.01194C27.5502 2.06462 26.9173 2.29031 26.3741 2.66618L11.3746 13.2033" stroke="#333" stroke-width="2.85714" stroke-linecap="round" stroke-linejoin="round"/>
</svg>
