<svg width="35" height="40" viewBox="0 0 35 40" fill="none" xmlns="http://www.w3.org/2000/svg">
  <path d="M10.7692 0H3.07692C1.37759 0 0 1.37759 0 3.07692V36.9231C0 38.6224 1.37759 40 3.07692 40H10.7692C12.4686 40 13.8462 38.6224 13.8462 36.9231V3.07692C13.8462 1.37759 12.4686 0 10.7692 0Z" fill="black"/>
  <path d="M31.6154 0H23.9231C22.2238 0 20.8462 1.37759 20.8462 3.07692V36.9231C20.8462 38.6224 22.2238 40 23.9231 40H31.6154C33.3148 40 34.6923 38.6224 34.6923 36.9231V3.07692C34.6923 1.37759 33.3148 0 31.6154 0Z" fill="black"/>
</svg>
