<svg width="35" height="40" viewBox="0 0 35 40" fill="none" xmlns="http://www.w3.org/2000/svg">
  <path d="M0 36.4242C0.0112927 37.0662 0.201967 37.6929 0.551303 38.2362C0.900638 38.7795 1.39527 39.2185 1.98145 39.5057C2.56678 39.8297 3.22768 40 3.89999 40C4.5723 40 5.2332 39.8297 5.81853 39.5057L33.0241 23.0198C33.6161 22.7404 34.1155 22.303 34.465 21.7579C34.8146 21.2128 35 20.5821 35 19.9384C35 19.2946 34.8146 18.6639 34.465 18.1188C34.1155 17.5737 33.6161 17.1363 33.0241 16.8569L5.81853 0.494319C5.2332 0.170282 4.5723 0 3.89999 0C3.22768 0 2.56678 0.170282 1.98145 0.494319C1.39527 0.781477 0.900638 1.22055 0.551303 1.76382C0.201967 2.30709 0.0112927 2.93378 0 3.57579V36.4242Z" fill="black"/>
</svg>
