<svg width="44" height="42" viewBox="0 0 44 42" fill="none" xmlns="http://www.w3.org/2000/svg">
  <path d="M11.5216 13.3789H5.80863C4.79852 13.3789 3.82978 13.7802 3.11552 14.4944C2.40127 15.2087 2 16.1774 2 17.1875V24.8048C2 25.8149 2.40127 26.7837 3.11552 27.4979C3.82978 28.2122 4.79852 28.6134 5.80863 28.6134H11.5216V13.3789Z" stroke="black" stroke-width="2.85714" stroke-linecap="round" stroke-linejoin="round"/>
  <path d="M11.5215 28.6134L26.4132 39.3156C26.965 39.6974 27.6078 39.9266 28.2766 39.9801C28.9454 40.0336 29.6165 39.9095 30.2219 39.6203C30.8785 39.3254 31.438 38.8504 31.8357 38.2505C32.2334 37.6506 32.453 36.9502 32.469 36.2306V5.76158C32.4853 5.07763 32.317 4.40191 31.9819 3.80544C31.6468 3.20897 31.1573 2.71378 30.5646 2.3719C29.9592 2.08272 29.2882 1.9586 28.6194 2.0121C27.9506 2.0656 27.3078 2.29483 26.756 2.67659L11.5215 13.3788" stroke="black" stroke-width="2.85714" stroke-linecap="round" stroke-linejoin="round"/>
  <path d="M40.0862 15.2832C41.4102 16.8839 42.0893 18.9211 41.9905 20.9962C42.0893 23.0712 41.4102 25.1084 40.0862 26.7091" stroke="black" stroke-width="2.85714" stroke-linecap="round" stroke-linejoin="round"/>
</svg>
