<svg width="34" height="23" viewBox="0 0 34 23" fill="none" xmlns="http://www.w3.org/2000/svg">
  <path d="M1.44916e-05 20.8029C-0.0013689 21.1663 0.0963174 21.5233 0.282575 21.8354C0.468833 22.1475 0.73662 22.403 1.05716 22.5743C1.37224 22.7631 1.73268 22.8629 2.10001 22.8629C2.46735 22.8629 2.82779 22.7631 3.14287 22.5743L17.6572 13.1457C17.9403 12.9649 18.1734 12.7157 18.3348 12.4211C18.4963 12.1265 18.5809 11.796 18.5809 11.46C18.5809 11.1241 18.4963 10.7935 18.3348 10.4989C18.1734 10.2043 17.9403 9.95509 17.6572 9.7743L3.14287 0.288585C2.82779 0.0997435 2.46735 0 2.10001 0C1.73268 0 1.37224 0.0997435 1.05716 0.288585C0.73662 0.459928 0.468833 0.715379 0.282575 1.02749C0.0963174 1.33959 -0.0013689 1.69656 1.44916e-05 2.06001V20.8029Z" fill="black"/>
  <path d="M14.5809 20.8029C14.5796 21.1663 14.6772 21.5233 14.8635 21.8354C15.0498 22.1475 15.3176 22.403 15.6381 22.5743C15.9532 22.7631 16.3136 22.8629 16.6809 22.8629C17.0483 22.8629 17.4087 22.7631 17.7238 22.5743L32.2381 13.1457C32.5213 12.9649 32.7543 12.7157 32.9157 12.4211C33.0772 12.1265 33.1618 11.796 33.1618 11.46C33.1618 11.1241 33.0772 10.7935 32.9157 10.4989C32.7543 10.2043 32.5213 9.95509 32.2381 9.7743L17.7238 0.288585C17.4087 0.0997435 17.0483 0 16.6809 0C16.3136 0 15.9532 0.0997435 15.6381 0.288585C15.326 0.455278 15.0637 0.701784 14.878 1.00295C14.6923 1.30411 14.5898 1.64916 14.5809 2.00287V20.8029Z" fill="black"/>
</svg>
