<svg width="34" height="23" viewBox="0 0 34 23" fill="none" xmlns="http://www.w3.org/2000/svg">
  <path d="M33.16 20.8029C33.1614 21.1663 33.0637 21.5233 32.8775 21.8354C32.6912 22.1475 32.4235 22.403 32.1029 22.5743C31.7879 22.7631 31.4275 22.8629 31.0601 22.8629C30.6928 22.8629 30.3324 22.7631 30.0173 22.5743L15.5038 13.1457C15.2207 12.9649 14.9877 12.7157 14.8262 12.4211C14.6648 12.1265 14.5802 11.796 14.5802 11.46C14.5802 11.1241 14.6648 10.7935 14.8262 10.4989C14.9877 10.2043 15.2207 9.95509 15.5038 9.7743L30.0173 0.288585C30.3324 0.0997435 30.6928 0 31.0601 0C31.4275 0 31.7879 0.0997435 32.1029 0.288585C32.4235 0.459928 32.6912 0.715379 32.8775 1.02749C33.0637 1.33959 33.1614 1.69656 33.16 2.06001V20.8029Z" fill="black"/>
  <path d="M18.5799 20.8029C18.5813 21.1663 18.4836 21.5233 18.2974 21.8354C18.1111 22.1475 17.8434 22.403 17.5229 22.5743C17.2078 22.7631 16.8474 22.8629 16.4801 22.8629C16.1127 22.8629 15.7523 22.7631 15.4373 22.5743L0.923765 13.1457C0.640622 12.9649 0.407579 12.7157 0.246146 12.4211C0.0847123 12.1265 9.20878e-05 11.796 9.20878e-05 11.46C9.20878e-05 11.1241 0.0847123 10.7935 0.246146 10.4989C0.407579 10.2043 0.640622 9.95509 0.923765 9.7743L15.4373 0.288585C15.7523 0.0997435 16.1127 0 16.4801 0C16.8474 0 17.2078 0.0997435 17.5229 0.288585C17.8349 0.455278 18.0972 0.701784 18.2829 1.00295C18.4686 1.30411 18.5711 1.64916 18.5799 2.00287V20.8029Z" fill="black"/>
</svg>
