<svg width="53" height="41" viewBox="0 0 53 41" fill="none" xmlns="http://www.w3.org/2000/svg">
  <path d="M11.3984 13.2317H5.75937C4.76232 13.2317 3.80611 13.6278 3.10109 14.3328C2.39608 15.0378 2 15.994 2 16.9911V24.5098C2 25.5069 2.39608 26.4631 3.10109 27.1681C3.80611 27.8731 4.76232 28.2692 5.75937 28.2692H11.3984V13.2317Z" stroke="#333" stroke-width="2.85714" stroke-linecap="round" stroke-linejoin="round"/>
  <path d="M11.3984 28.2692L26.0976 38.833C26.6422 39.2098 27.2767 39.4361 27.9368 39.4889C28.597 39.5417 29.2594 39.4192 29.8569 39.1338C30.505 38.8426 31.0574 38.3738 31.4499 37.7817C31.8425 37.1895 32.0592 36.4982 32.075 35.7879V5.71296C32.0911 5.03785 31.925 4.37087 31.5942 3.78212C31.2635 3.19337 30.7802 2.70458 30.1953 2.36712C29.5977 2.08168 28.9353 1.95916 28.2752 2.01197C27.615 2.06479 26.9805 2.29105 26.4359 2.66787L11.3984 13.2317" stroke="#333" stroke-width="2.85714" stroke-linecap="round" stroke-linejoin="round"/>
  <path d="M47.1124 9.47235C49.7263 12.6324 51.0668 16.6541 50.8718 20.7505C50.8153 25.3933 49.5173 29.9364 47.1124 33.9083" stroke="#333" stroke-width="2.85714" stroke-linecap="round" stroke-linejoin="round"/>
  <path d="M39.5938 15.1114C40.9007 16.6914 41.571 18.7022 41.4734 20.7504C41.571 22.7986 40.9007 24.8094 39.5938 26.3895" stroke="#333" stroke-width="2.85714" stroke-linecap="round" stroke-linejoin="round"/>
</svg>
