<svg width="52" height="41" viewBox="0 0 52 41" fill="none" xmlns="http://www.w3.org/2000/svg">
  <path d="M11.2729 13.0817H5.70916C4.72543 13.0817 3.78199 13.4725 3.08639 14.1681C2.39079 14.8637 2 15.8071 2 16.7909V24.2092C2 25.1929 2.39079 26.1363 3.08639 26.8319C3.78199 27.5275 4.72543 27.9183 5.70916 27.9183H11.2729V13.0817Z" stroke="black" stroke-width="2.85714" stroke-linecap="round" stroke-linejoin="round"/>
  <path d="M11.2728 27.9183L25.7756 38.3411C26.313 38.7128 26.939 38.9361 27.5903 38.9882C28.2416 39.0403 28.8952 38.9194 29.4848 38.6378C30.1242 38.3506 30.6692 37.888 31.0565 37.3038C31.4438 36.7195 31.6576 36.0374 31.6732 35.3366V5.66337C31.6891 4.99727 31.5252 4.33921 31.1989 3.75832C30.8725 3.17743 30.3957 2.69517 29.8186 2.36221C29.229 2.08058 28.5755 1.95971 27.9241 2.01181C27.2728 2.06392 26.6468 2.28716 26.1095 2.65895L11.2728 13.0817" stroke="black" stroke-width="2.85714" stroke-linecap="round" stroke-linejoin="round"/>
  <path d="M50.219 14.9362L39.0916 26.0637" stroke="black" stroke-width="2.85714" stroke-linecap="round" stroke-linejoin="round"/>
  <path d="M39.0916 14.9362L50.219 26.0637" stroke="black" stroke-width="2.85714" stroke-linecap="round" stroke-linejoin="round"/>
</svg>
