<svg width="105" height="52" viewBox="0 0 105 52" fill="none" xmlns="http://www.w3.org/2000/svg">
  <path d="M5.8418 40.4336H3.81055V51H5.95898V42.8848C5.99805 42.7871 6.04036 42.6992 6.08594 42.6211C6.13802 42.543 6.19661 42.4746 6.26172 42.416C6.34635 42.3314 6.44727 42.2695 6.56445 42.2305C6.68815 42.1849 6.82812 42.1621 6.98438 42.1621C7.1276 42.1621 7.25456 42.1816 7.36523 42.2207C7.48242 42.2598 7.58333 42.3216 7.66797 42.4062C7.7526 42.4909 7.81445 42.6081 7.85352 42.7578C7.89909 42.901 7.92188 43.0768 7.92188 43.2852V51H10.0312V43.1582C10.0312 43.0931 10.0312 43.0443 10.0312 43.0117C10.0312 42.9727 10.0312 42.9401 10.0312 42.9141C10.0573 42.8034 10.0964 42.7057 10.1484 42.6211C10.2005 42.5299 10.2656 42.4518 10.3438 42.3867C10.4284 42.3151 10.526 42.2598 10.6367 42.2207C10.7474 42.1816 10.8776 42.1621 11.0273 42.1621C11.1706 42.1621 11.3008 42.1816 11.418 42.2207C11.5417 42.2598 11.6458 42.3216 11.7305 42.4062C11.8151 42.4974 11.8802 42.6178 11.9258 42.7676C11.9714 42.9108 11.9941 43.0866 11.9941 43.2949V51H14.1426V43.3145C14.1426 42.7611 14.084 42.2891 13.9668 41.8984C13.8561 41.5013 13.6966 41.179 13.4883 40.9316C13.2799 40.6973 13.0326 40.5247 12.7461 40.4141C12.4661 40.2969 12.1569 40.2383 11.8184 40.2383C11.5579 40.2383 11.3171 40.2708 11.0957 40.3359C10.8809 40.401 10.6855 40.4922 10.5098 40.6094C10.373 40.7005 10.2461 40.8112 10.1289 40.9414C10.0117 41.0716 9.90755 41.2116 9.81641 41.3613C9.7513 41.1986 9.67318 41.0553 9.58203 40.9316C9.49089 40.8014 9.38672 40.6908 9.26953 40.5996C9.11979 40.4759 8.94076 40.3848 8.73242 40.3262C8.52409 40.2676 8.28971 40.2383 8.0293 40.2383C7.52799 40.2383 7.09831 40.3587 6.74023 40.5996C6.38867 40.8405 6.11198 41.1725 5.91016 41.5957L5.8418 40.4336Z" fill="#6C6C6C"/>
  <path d="M33.4492 51H35.5684V40.4336H33.2246V47.9141C33.1335 48.1094 33.0228 48.2884 32.8926 48.4512C32.7624 48.6074 32.6126 48.7441 32.4434 48.8613C32.2415 48.9915 32.0072 49.0957 31.7402 49.1738C31.4733 49.2454 31.1706 49.2812 30.832 49.2812C30.5065 49.2812 30.2233 49.2389 29.9824 49.1543C29.7415 49.0697 29.543 48.9264 29.3867 48.7246C29.2305 48.5293 29.1165 48.2689 29.0449 47.9434C28.9733 47.6113 28.9375 47.2012 28.9375 46.7129V40.4336H26.6035V46.6934C26.6035 47.4876 26.6914 48.1712 26.8672 48.7441C27.043 49.3105 27.2904 49.776 27.6094 50.1406C27.9349 50.5052 28.3223 50.7754 28.7715 50.9512C29.2272 51.1204 29.7285 51.2051 30.2754 51.2051C30.9134 51.2051 31.4896 51.0586 32.0039 50.7656C32.5182 50.4661 32.9544 50.0527 33.3125 49.5254L33.4492 51Z" fill="#6C6C6C"/>
  <path d="M55.4414 48.1387C55.4414 48.3079 55.4023 48.4642 55.3242 48.6074C55.2526 48.7441 55.1419 48.8711 54.9922 48.9883C54.8099 49.1315 54.5658 49.2454 54.2598 49.3301C53.9603 49.4147 53.6087 49.457 53.2051 49.457C52.9056 49.457 52.6094 49.4277 52.3164 49.3691C52.0234 49.304 51.763 49.1999 51.5352 49.0566C51.3008 48.9199 51.1055 48.7409 50.9492 48.5195C50.7995 48.2917 50.7148 48.015 50.6953 47.6895H48.4297C48.4297 48.1257 48.5339 48.5553 48.7422 48.9785C48.9505 49.4017 49.2565 49.776 49.6602 50.1016C50.0573 50.4336 50.5488 50.7005 51.1348 50.9023C51.7272 51.1042 52.4043 51.2051 53.166 51.2051C53.8496 51.2051 54.4714 51.127 55.0312 50.9707C55.5911 50.8145 56.0729 50.5964 56.4766 50.3164C56.8737 50.0365 57.1797 49.7012 57.3945 49.3105C57.6159 48.9199 57.7266 48.4902 57.7266 48.0215C57.7266 47.5397 57.6224 47.123 57.4141 46.7715C57.2057 46.4199 56.9128 46.1139 56.5352 45.8535C56.1576 45.6061 55.7018 45.3978 55.168 45.2285C54.6341 45.0592 54.0449 44.916 53.4004 44.7988C52.9382 44.7207 52.554 44.6328 52.248 44.5352C51.9486 44.4375 51.7142 44.3301 51.5449 44.2129C51.3626 44.1022 51.2357 43.9753 51.1641 43.832C51.0924 43.6823 51.0566 43.5163 51.0566 43.334C51.0566 43.1582 51.099 42.9922 51.1836 42.8359C51.2682 42.6732 51.3952 42.5332 51.5645 42.416C51.7337 42.2858 51.9486 42.1849 52.209 42.1133C52.4759 42.0352 52.7852 41.9961 53.1367 41.9961C53.5208 41.9961 53.8561 42.0482 54.1426 42.1523C54.429 42.25 54.6634 42.3835 54.8457 42.5527C55.002 42.696 55.1191 42.8587 55.1973 43.041C55.2819 43.2168 55.3242 43.4023 55.3242 43.5977H57.6582C57.6582 43.1224 57.554 42.6797 57.3457 42.2695C57.1374 41.8594 56.8411 41.5046 56.457 41.2051C56.0664 40.9056 55.5911 40.6712 55.0312 40.502C54.4714 40.3262 53.8398 40.2383 53.1367 40.2383C52.4792 40.2383 51.8802 40.3229 51.3398 40.4922C50.806 40.6615 50.3503 40.8926 49.9727 41.1855C49.5885 41.4785 49.2923 41.8203 49.084 42.2109C48.8822 42.5951 48.7812 43.002 48.7812 43.4316C48.7812 43.8809 48.8822 44.2747 49.084 44.6133C49.2858 44.9518 49.5658 45.2448 49.9238 45.4922C50.2884 45.7526 50.7214 45.974 51.2227 46.1562C51.7305 46.3385 52.2904 46.4915 52.9023 46.6152C53.3906 46.7064 53.7975 46.804 54.123 46.9082C54.4486 47.0124 54.7122 47.123 54.9141 47.2402C55.1029 47.3704 55.2363 47.5072 55.3145 47.6504C55.3991 47.7936 55.4414 47.9564 55.4414 48.1387Z" fill="#6C6C6C"/>
  <path d="M71.0859 40.4336V42.377H74.3379V49.0664H71.0859V51H79.7969V49.0664H76.6914V40.4336H71.0859ZM74.123 37.6992C74.123 37.9466 74.1816 38.1647 74.2988 38.3535C74.4225 38.5358 74.6016 38.6628 74.8359 38.7344C75.0638 38.806 75.2721 38.8223 75.4609 38.7832C75.6497 38.7441 75.8125 38.6628 75.9492 38.5391C76.2227 38.4674 76.431 38.3275 76.5742 38.1191C76.7174 37.9043 76.7663 37.6536 76.7207 37.3672C76.6882 37.0872 76.5612 36.8594 76.3398 36.6836C76.125 36.5013 75.8418 36.4102 75.4902 36.4102C75.2819 36.4102 75.0931 36.4427 74.9238 36.5078C74.7611 36.5664 74.6211 36.651 74.5039 36.7617C74.3802 36.8789 74.2858 37.0189 74.2207 37.1816C74.1556 37.3379 74.123 37.5104 74.123 37.6992Z" fill="#6C6C6C"/>
  <path d="M97.1602 49.3203C96.6719 49.3203 96.265 49.2227 95.9395 49.0273C95.6139 48.832 95.3568 48.5716 95.168 48.2461C94.9727 47.9336 94.8327 47.5723 94.748 47.1621C94.6699 46.7454 94.6309 46.3223 94.6309 45.8926V45.5508C94.6309 45.1276 94.6699 44.7109 94.748 44.3008C94.8327 43.8906 94.9759 43.526 95.1777 43.207C95.3665 42.888 95.6204 42.6309 95.9395 42.4355C96.265 42.2337 96.6719 42.1328 97.1602 42.1328C97.4792 42.1328 97.7754 42.1882 98.0488 42.2988C98.3288 42.4095 98.5697 42.5592 98.7715 42.748C98.9668 42.9368 99.1165 43.1582 99.2207 43.4121C99.3314 43.666 99.3867 43.9362 99.3867 44.2227H101.584C101.59 43.6367 101.483 43.0996 101.262 42.6113C101.047 42.123 100.744 41.7031 100.354 41.3516C99.9629 41 99.4941 40.7266 98.9473 40.5312C98.4069 40.3359 97.8177 40.2383 97.1797 40.2383C96.3724 40.2383 95.6628 40.3815 95.0508 40.668C94.4453 40.9479 93.9375 41.3288 93.5273 41.8105C93.1172 42.2923 92.8079 42.8555 92.5996 43.5C92.3978 44.1445 92.2969 44.8281 92.2969 45.5508V45.8926C92.2969 46.6217 92.401 47.3086 92.6094 47.9531C92.8177 48.5911 93.127 49.151 93.5371 49.6328C93.9408 50.1146 94.4453 50.4987 95.0508 50.7852C95.6628 51.0651 96.3757 51.2051 97.1895 51.2051C97.7754 51.2051 98.332 51.1107 98.8594 50.9219C99.3932 50.7266 99.8652 50.4596 100.275 50.1211C100.679 49.7956 100.998 49.4082 101.232 48.959C101.473 48.5033 101.59 48.0182 101.584 47.5039H99.3867C99.3867 47.7708 99.3249 48.015 99.2012 48.2363C99.084 48.4577 98.9245 48.6497 98.7227 48.8125C98.5143 48.9753 98.2734 49.1022 98 49.1934C97.7331 49.278 97.4531 49.3203 97.1602 49.3203Z" fill="#6C6C6C"/>
  <path d="M0.769531 1.5625V5.99609H6.17969V25.5859H0.769531V30H17.2148V25.5859H11.668V5.99609H17.2148V1.5625H0.769531Z" fill="#333333"/>
  <path d="M22.1102 0V4.43359H28.4383V25.5859H22.1102V30H39.9813V25.5859H33.9266V0H22.1102Z" fill="#333333"/>
  <path d="M45.5406 38.5352C46.6344 38.5352 47.5784 38.3529 48.3727 37.9883C49.1799 37.6237 49.8635 37.1745 50.4234 36.6406C50.9833 36.1068 51.4456 35.5273 51.8102 34.9023C52.1878 34.2773 52.4938 33.6979 52.7281 33.1641L63.4508 8.86719H57.4547L52.6305 21.2891L51.8297 23.3984L51.2438 21.25L46.4 8.86719H40.4625L49.4078 29.1016L48.1578 31.4258C48.0016 31.7122 47.8648 31.9336 47.7477 32.0898C47.6435 32.2461 47.4742 32.4805 47.2398 32.793C47.0055 33.1055 46.719 33.3919 46.3805 33.6523C46.0549 33.9258 45.6773 34.0625 45.2477 34.0625C45.0393 34.0625 44.7594 34.0495 44.4078 34.0234C44.0693 34.0104 43.7893 34.0039 43.568 34.0039L42.9039 38.1445C43.3727 38.2747 43.7958 38.3724 44.1734 38.4375C44.5641 38.5026 45.0198 38.5352 45.5406 38.5352Z" fill="#333333"/>
  <path d="M76.6273 30H82.1352V29.668C81.8617 29.1341 81.6534 28.4961 81.5102 27.7539C81.3669 27.0117 81.2953 26.0742 81.2953 24.9414V15.8789C81.2953 14.6549 81.0674 13.5807 80.6117 12.6562C80.156 11.7188 79.5245 10.944 78.7172 10.332C77.9099 9.72005 76.9529 9.25781 75.8461 8.94531C74.7523 8.63281 73.5674 8.47656 72.2914 8.47656C70.8721 8.47656 69.6091 8.65885 68.5023 9.02344C67.4086 9.375 66.4841 9.85677 65.7289 10.4688C64.9607 11.0807 64.3747 11.7904 63.9711 12.5977C63.5805 13.4049 63.3852 14.2578 63.3852 15.1562H68.8148C68.8148 14.7786 68.8669 14.4336 68.9711 14.1211C69.0883 13.8086 69.2641 13.5417 69.4984 13.3203C69.7589 13.0729 70.0974 12.8841 70.5141 12.7539C70.9307 12.6107 71.4255 12.5391 71.9984 12.5391C72.6495 12.5391 73.2159 12.6237 73.6977 12.793C74.1924 12.9492 74.6026 13.1771 74.9281 13.4766C75.2406 13.763 75.475 14.1081 75.6312 14.5117C75.7875 14.9023 75.8656 15.3451 75.8656 15.8398V17.0898H72.8383C71.2758 17.0898 69.8891 17.2331 68.6781 17.5195C67.4802 17.793 66.4711 18.1966 65.6508 18.7305C64.7393 19.3164 64.0557 20.0651 63.6 20.9766C63.1443 21.875 62.9164 22.9102 62.9164 24.082C62.9164 24.9935 63.0987 25.8398 63.4633 26.6211C63.8279 27.3893 64.3357 28.0534 64.9867 28.6133C65.6378 29.1732 66.4125 29.6094 67.3109 29.9219C68.2224 30.2344 69.2185 30.3906 70.2992 30.3906C70.9633 30.3906 71.5818 30.3255 72.1547 30.1953C72.7276 30.0781 73.2549 29.9089 73.7367 29.6875C74.2055 29.4792 74.6352 29.2318 75.0258 28.9453C75.4164 28.6589 75.7615 28.3529 76.0609 28.0273C76.126 28.4049 76.2042 28.763 76.2953 29.1016C76.3865 29.4401 76.4971 29.7396 76.6273 30ZM71.4516 26.1914C70.9437 26.1914 70.4945 26.1328 70.1039 26.0156C69.7263 25.8854 69.4073 25.7161 69.1469 25.5078C68.8865 25.2865 68.6846 25.0195 68.5414 24.707C68.4112 24.3815 68.3461 24.0299 68.3461 23.6523C68.3461 23.1706 68.4372 22.7279 68.6195 22.3242C68.8018 21.9076 69.0818 21.5495 69.4594 21.25C69.837 20.9635 70.3253 20.7422 70.9242 20.5859C71.5232 20.4167 72.2458 20.332 73.0922 20.332H75.8656V23.9648C75.7094 24.2383 75.4945 24.5117 75.2211 24.7852C74.9477 25.0456 74.6221 25.2799 74.2445 25.4883C73.8669 25.6966 73.4437 25.8659 72.975 25.9961C72.5062 26.1263 71.9984 26.1914 71.4516 26.1914Z" fill="#333333"/>
  <path d="M84.4133 30H94.7844C96.3469 30 97.7531 29.8242 99.0031 29.4727C100.253 29.1211 101.314 28.5938 102.187 27.8906C103.059 27.1875 103.73 26.3151 104.198 25.2734C104.667 24.2318 104.902 23.0273 104.902 21.6602C104.902 20.944 104.804 20.2539 104.609 19.5898C104.426 18.9128 104.14 18.2878 103.749 17.7148C103.372 17.181 102.903 16.7122 102.343 16.3086C101.796 15.9049 101.054 15.5729 100.116 15.3125V15.293C100.598 15.1107 101.034 14.8893 101.425 14.6289C101.829 14.3685 102.187 14.082 102.499 13.7695C103.072 13.1966 103.502 12.5326 103.788 11.7773C104.088 11.0091 104.244 10.1953 104.257 9.33594C104.257 8.00781 104.01 6.85547 103.515 5.87891C103.033 4.90234 102.343 4.09505 101.445 3.45703C100.546 2.81901 99.4589 2.34375 98.1828 2.03125C96.9198 1.71875 95.5135 1.5625 93.9641 1.5625H84.4133V30ZM89.9211 17.4609H95.0383C95.8065 17.474 96.4706 17.5781 97.0305 17.7734C97.5904 17.9688 98.0461 18.2487 98.3977 18.6133C98.7492 18.9648 99.0031 19.3945 99.1594 19.9023C99.3286 20.4102 99.4133 20.9831 99.4133 21.6211C99.4133 22.2331 99.3026 22.7865 99.0813 23.2812C98.8729 23.776 98.5604 24.1992 98.1438 24.5508C97.7661 24.8633 97.2909 25.1107 96.718 25.293C96.1581 25.4753 95.5201 25.5664 94.8039 25.5664H89.9211V17.4609ZM89.9211 13.4961V6.03516H93.9836C94.869 6.04818 95.6372 6.14583 96.2883 6.32812C96.9523 6.51042 97.4797 6.80339 97.8703 7.20703C98.1698 7.49349 98.3911 7.85156 98.5344 8.28125C98.6906 8.71094 98.7688 9.21224 98.7688 9.78516C98.7688 10.332 98.6776 10.8203 98.4953 11.25C98.326 11.6797 98.0786 12.0443 97.7531 12.3438C97.3625 12.7214 96.8482 13.0078 96.2102 13.2031C95.5721 13.3854 94.8365 13.4831 94.0031 13.4961H89.9211Z" fill="#333333"/>
</svg>
